<svg id="Group_1493" data-name="Group 1493" xmlns="http://www.w3.org/2000/svg" width="20.515" height="19.05" viewBox="0 0 25.739 25.74">
  <path id="Path_4" data-name="Path 4" d="M1115.827,507.945h-11.533a7.111,7.111,0,0,0-7.1,7.1v11.534a7.111,7.111,0,0,0,7.1,7.1h11.533a7.111,7.111,0,0,0,7.1-7.1V515.048a7.111,7.111,0,0,0-7.1-7.1Zm4.819,18.637a4.825,4.825,0,0,1-4.819,4.82h-11.533a4.824,4.824,0,0,1-4.819-4.82V515.048a4.824,4.824,0,0,1,4.819-4.819h11.533a4.825,4.825,0,0,1,4.819,4.819Zm0,0" transform="translate(-1097.191 -507.945)" fill="#fff"/>
  <path id="Path_5" data-name="Path 5" d="M1115.034,519.157a6.632,6.632,0,1,0,6.633,6.632,6.64,6.64,0,0,0-6.633-6.632Zm0,10.98a4.348,4.348,0,1,1,4.349-4.348,4.353,4.353,0,0,1-4.349,4.348Zm0,0" transform="translate(-1102.165 -512.919)" fill="#fff"/>
  <path id="Path_6" data-name="Path 6" d="M1131.409,515.676a1.674,1.674,0,1,0,1.184.49,1.681,1.681,0,0,0-1.184-.49Zm0,0" transform="translate(-1111.629 -511.375)" fill="#fff"/>
</svg>
