<svg xmlns="http://www.w3.org/2000/svg" width="119.079" height="108.594" viewBox="0 0 119.079 108.594">
  <g id="Group_2499" data-name="Group 2499" transform="translate(19521.055 -12139.394) rotate(8)">
    <path id="Path_12210" data-name="Path 12210" d="M135.017,185.257a2.107,2.107,0,0,1-1.491-.618L113.8,164.91a2.107,2.107,0,0,1,0-2.981l4.209-4.208a4.734,4.734,0,0,1,6.7,0l16.013,16.011a4.724,4.724,0,0,1,0,6.7l-4.209,4.209a2.107,2.107,0,0,1-1.491.617Zm-16.746-21.837,16.746,16.747,2.718-2.718h0a.5.5,0,0,0,.157-.366.509.509,0,0,0-.157-.368L121.723,160.7a.439.439,0,0,0-.731,0Z" transform="translate(-17734.717 14602.408)" fill="#fff"/>
    <path id="Path_12211" data-name="Path 12211" d="M347.778,398.019a2.107,2.107,0,0,1-1.491-.618l-19.728-19.73a2.108,2.108,0,0,1,0-2.982l4.207-4.209a4.742,4.742,0,0,1,6.7,0l16.013,16.013a4.725,4.725,0,0,1,0,6.7l-4.209,4.209a2.108,2.108,0,0,1-1.492.618Zm-16.746-21.838,16.746,16.747,2.718-2.718h0a.5.5,0,0,0,.157-.366.509.509,0,0,0-.157-.368l-16.013-16.013a.52.52,0,0,0-.735,0Z" transform="translate(-17905.816 14431.306)" fill="#fff"/>
    <path id="Path_12212" data-name="Path 12212" d="M141.308,253.825c-3.323,0-7.51-1.259-12.438-3.769-7.879-4.033-16.81-10.844-25.148-19.182-15.6-15.6-28.177-36.193-20.75-43.62l4.769-4.769a2.17,2.17,0,0,1,2.982,0l19.728,19.73a2.107,2.107,0,0,1,0,2.981l-1.062,1.064c-.552.978.692,6.925,6.357,12.591s11.608,6.9,12.644,6.314l1.011-1.02a2.11,2.11,0,0,1,2.982,0l19.728,19.73a2.107,2.107,0,0,1,0,2.982l-4.769,4.768a8.182,8.182,0,0,1-6.033,2.2ZM89.233,186.956l-3.278,3.278c-1.87,1.871-.97,7.071,2.347,13.573,3.824,7.487,10.358,16.041,18.4,24.084s16.589,14.572,24.084,18.408c6.5,3.31,11.7,4.207,13.57,2.341l3.278-3.277-16.781-16.782c-3.519,2.519-11.866-.523-18.093-6.75s-9.269-14.573-6.75-18.091Z" transform="translate(-17708.66 14581.854)" fill="#fff"/>
    <path id="Path_12213" data-name="Path 12213" d="M305.965,60.256a2.108,2.108,0,0,1-2.109-2.109v-11.1c-5.731-3.982-8.871-9.227-8.871-14.876,0-11.8,14.242-21.4,31.744-21.4s31.744,9.6,31.744,21.4-14.24,21.39-31.744,21.39a46.623,46.623,0,0,1-7.8-.649L307.039,59.96a2.1,2.1,0,0,1-1.075.3Zm20.765-45.273c-15.179,0-27.529,7.71-27.529,17.187,0,4.47,2.8,8.72,7.9,11.969a2.11,2.11,0,0,1,.974,1.778v8.53l9.38-5.562a2.1,2.1,0,0,1,1.466-.259,42.17,42.17,0,0,0,7.811.717c15.18,0,27.527-7.7,27.527-17.173S341.909,14.983,326.73,14.983Z" transform="translate(-17880.924 14719.473)" fill="#fff"/>
  </g>
</svg>
