<svg id="Group_1494" data-name="Group 1494" xmlns="http://www.w3.org/2000/svg" width="20.515" height="19.05" viewBox="0 0 29.283 23.787">
  <path id="Path_7" data-name="Path 7" d="M1044.122,511.115a12.013,12.013,0,0,1-3.45.949,6.051,6.051,0,0,0,2.644-3.326,11.971,11.971,0,0,1-3.825,1.457,6.005,6.005,0,0,0-10.383,4.111,6.244,6.244,0,0,0,.153,1.368,17.054,17.054,0,0,1-12.385-6.275,6.007,6.007,0,0,0,1.858,8.016,5.918,5.918,0,0,1-2.715-.75v.073a6.023,6.023,0,0,0,4.815,5.9,6.2,6.2,0,0,1-1.581.2,6.064,6.064,0,0,1-1.135-.1,6.029,6.029,0,0,0,5.612,4.173,12.076,12.076,0,0,1-7.462,2.564,12.872,12.872,0,0,1-1.43-.08,17,17,0,0,0,9.212,2.7c11.044,0,17.086-9.151,17.086-17.084l-.018-.777a12.118,12.118,0,0,0,3-3.111Zm0,0" transform="translate(-1014.839 -508.301)" fill="#fff"/>
</svg>
