<svg xmlns="http://www.w3.org/2000/svg" width="130.59" height="83.476" viewBox="0 0 130.59 83.476">
  <g id="noun-delivery-1639532" transform="translate(0 0)">
    <path id="Path_12207" data-name="Path 12207" d="M79.253,97.137h60.523a7.668,7.668,0,0,1,7.659,7.659v3.786l28.808,2.237a2.2,2.2,0,0,1,1.532.8c3.912,4.836,7.117,20.587,8.162,26.2,6.324.164,15.81,2.631,16.259,11.466v14.2a10.637,10.637,0,0,1-2.981,7.036,8.024,8.024,0,0,1-5.569,2.09c-.158,0-.317-.005-.476-.011l-9.546.011a2.187,2.187,0,0,1-2.188-2.188,11.992,11.992,0,0,0-23.984,0,2.187,2.187,0,0,1-2.188,2.188H111.04a2.191,2.191,0,0,1-2.188-2.188v-.011a11.989,11.989,0,0,0-23.979,0,2.191,2.191,0,0,1-2.188,2.188H79.267a7.675,7.675,0,0,1-7.659-7.659V104.8a7.655,7.655,0,0,1,7.648-7.659ZM174.882,115.1l-27.453-2.128v23.4l34.027,1.356c-1.275-6.662-3.922-18.353-6.576-22.626Zm-5.438,38.946a16.347,16.347,0,0,1,16.149,14.18l7.681-.006a3.953,3.953,0,0,0,2.944-.892,6.314,6.314,0,0,0,1.6-3.9V149.4c-.383-7.506-12.62-7.222-13.643-7.211-.027,0-.049.005-.077.005-.005,0-.011-.005-.016-.005h-.066l-36.587-1.45v27.486H153.3a16.338,16.338,0,0,1,16.144-14.179ZM75.972,164.94a3.285,3.285,0,0,0,3.282,3.282H80.7a16.288,16.288,0,0,1,32.3.011h30.05V104.8a3.285,3.285,0,0,0-3.282-3.282H79.253a3.285,3.285,0,0,0-3.282,3.282Z" transform="translate(-71.607 -97.137)" fill="#fff"/>
    <path id="Path_12208" data-name="Path 12208" d="M178.015,366.15a10.2,10.2,0,1,1-10.2,10.2A10.211,10.211,0,0,1,178.015,366.15Zm0,16.017a5.816,5.816,0,1,0-5.82-5.815A5.828,5.828,0,0,0,178.015,382.167Z" transform="translate(-80.18 -303.078)" fill="#fff"/>
    <path id="Path_12209" data-name="Path 12209" d="M487.6,366.19a10.2,10.2,0,1,1-10.2,10.2A10.214,10.214,0,0,1,487.6,366.19Zm0,16.018a5.816,5.816,0,1,0-5.816-5.816A5.82,5.82,0,0,0,487.6,382.208Z" transform="translate(-462.343 -303.108)" fill="#fff"/>
  </g>
</svg>
