<svg xmlns="http://www.w3.org/2000/svg" width="20.515" height="19.05" viewBox="0 0 25.291 25.276">
  <path id="Path_12188" data-name="Path 12188" d="M126.308,64.4c-.569-4.833,3.7-7.581,4.075-7.675.284-.095.758-.663,2.653,1.706,1.8,2.369,3.127,4.264,1.99,5.307-1.232,1.042-3.032,2.369-2.085,4.169.758,1.611,5.686,6.444,7.2,7.2,1.9.948,3.127-.853,4.169-1.99,1.042-1.232,3.032.095,5.4,1.9,2.369,1.9,1.8,2.369,1.706,2.748-.095.284-2.843,4.549-7.771,4.075-5.117-.569-16.868-12.319-17.342-17.436Z" transform="translate(-126.255 -56.597)" fill="#515a68" fill-rule="evenodd"/>
</svg>
