<svg xmlns="http://www.w3.org/2000/svg" width="137.574" height="72.737" viewBox="0 0 137.574 72.737">
  <path id="Path_12206" data-name="Path 12206" d="M172.279,225.739a17.418,17.418,0,1,1-17.418-17.418A17.345,17.345,0,0,1,172.279,225.739Zm15.483,50.32a32.9,32.9,0,0,0-65.8,0Zm6.386-55.545a14.322,14.322,0,1,0,14.322,14.322A14.29,14.29,0,0,0,194.147,220.514Zm-6.386,55.545H221.05a27.037,27.037,0,0,0-42.191-22.45m-77.608-18.775a14.322,14.322,0,1,0,14.322-14.322A14.29,14.29,0,0,0,101.251,234.835Zm29.416,18.773a27.037,27.037,0,0,0-42.191,22.45h33.288" transform="translate(-85.976 -205.822)" fill="none" stroke="#fff" stroke-linecap="round" stroke-linejoin="round" stroke-width="5"/>
</svg>
