<svg xmlns="http://www.w3.org/2000/svg" width="20.515" height="19.05" viewBox="0 0 23.198 28.742">
  <path id="Path_12218" data-name="Path 12218" d="M482.87,296.219a7.194,7.194,0,0,1-1.553-2.381,7.24,7.24,0,0,1,0-5.437,7.2,7.2,0,0,1,1.553-2.381,6.8,6.8,0,0,1,7.58-1.556,7.214,7.214,0,0,1,3.854,3.956,7.382,7.382,0,0,1,0,5.4,7.012,7.012,0,0,1-1.534,2.362l-4.968,5.1Zm9.334-16.105a11.656,11.656,0,0,0-4.384-.9,11.189,11.189,0,0,0-8.2,3.469,11.649,11.649,0,0,0-2.539,3.918,12.321,12.321,0,0,0,0,9.037,11.652,11.652,0,0,0,2.539,3.918l8.183,8.4,8.22-8.437a11.609,11.609,0,0,0,2.557-3.937,12.269,12.269,0,0,0,0-8.925,11.606,11.606,0,0,0-2.557-3.937,11.32,11.32,0,0,0-3.818-2.606" transform="translate(-476.221 -279.214)" fill="#515a68"/>
</svg>
