<svg id="Group_1495" data-name="Group 1495" xmlns="http://www.w3.org/2000/svg" width="20.515" height="19.05" viewBox="0 0 24.385 23.302">
  <path id="Path_12139" data-name="Path 12139" d="M1194.965,522.092v9.016h-5.227V522.7c0-2.113-.755-3.555-2.647-3.555a2.859,2.859,0,0,0-2.682,1.911,3.591,3.591,0,0,0-.173,1.274v8.781h-5.228s.07-14.248,0-15.723h5.228v2.228c-.011.017-.025.035-.034.051h.034v-.051a5.19,5.19,0,0,1,4.711-2.6c3.44,0,6.018,2.247,6.018,7.076Zm-21.427-14.286a2.724,2.724,0,1,0-.068,5.433h.035a2.725,2.725,0,1,0,.034-5.433Zm-2.647,23.3h5.226V515.385h-5.226Zm0,0" transform="translate(-1170.58 -507.806)" fill="#fff"/>
</svg>
